<svg width="91" height="70" viewBox="0 0 91 70" fill="none" xmlns="http://www.w3.org/2000/svg">
<circle cx="45.5" cy="22" r="21.5" stroke="#9CA3AF"/>
<path d="M43.9844 22.8984H45.3906C46.875 22.8984 47.7969 23.6484 47.7969 24.8672C47.7969 25.9688 46.8125 26.75 45.4375 26.75C44.0156 26.75 43.125 26.0078 43.0156 24.9297H41.3359C41.4453 26.875 43.0078 28.2109 45.4375 28.2109C47.7891 28.2109 49.5781 26.8594 49.5781 24.8906C49.5781 23.3125 48.4844 22.2734 46.7891 22.1562V22.125C48.1875 21.875 49.1094 20.8672 49.1094 19.4609C49.1094 17.7266 47.5547 16.5156 45.4219 16.5156C43.1875 16.5156 41.6953 17.7891 41.5625 19.7656H43.2109C43.3125 18.6562 44.125 17.9531 45.3438 17.9531C46.6797 17.9531 47.3984 18.6484 47.3984 19.6953C47.3984 20.7578 46.5625 21.5234 45.3438 21.5234H43.9844V22.8984Z" fill="#9CA3AF"/>
<path d="M6.37344 56.5449H5.31875V62.0352C5.31875 63.8398 6.57851 65.1406 8.67617 65.1406C10.7738 65.1406 12.0336 63.8398 12.0336 62.0352V56.5449H10.9789V61.9648C10.9789 63.2422 10.141 64.168 8.67617 64.168C7.21133 64.168 6.37344 63.2422 6.37344 61.9648V56.5449ZM16.595 58.8008C15.7102 58.8008 15.0012 59.252 14.6262 59.9375H14.6028V58.9062H13.636V67.0332H14.6555V64.0098H14.679C15.0423 64.6777 15.7454 65.1055 16.6184 65.1055C18.1536 65.1055 19.2024 63.8633 19.2024 61.9531C19.2024 60.043 18.1477 58.8008 16.595 58.8008ZM16.3958 64.209C15.3528 64.209 14.6497 63.3125 14.6497 61.9531C14.6497 60.5996 15.3528 59.6973 16.3958 59.6973C17.4798 59.6973 18.1595 60.5762 18.1595 61.9531C18.1595 63.3359 17.4798 64.209 16.3958 64.209ZM20.4064 65H21.4259V56.5449H20.4064V65ZM25.4483 65.1055C27.1299 65.1055 28.2666 63.8926 28.2666 61.9531C28.2666 60.0078 27.1299 58.8008 25.4483 58.8008C23.7608 58.8008 22.6241 60.0078 22.6241 61.9531C22.6241 63.8926 23.7608 65.1055 25.4483 65.1055ZM25.4483 64.209C24.3702 64.209 23.6612 63.3887 23.6612 61.9531C23.6612 60.5176 24.3702 59.6973 25.4483 59.6973C26.5264 59.6973 27.2295 60.5176 27.2295 61.9531C27.2295 63.3887 26.5264 64.209 25.4483 64.209ZM31.4277 64.2383C30.6952 64.2383 30.2089 63.8574 30.2089 63.2773C30.2089 62.7031 30.6777 62.3398 31.498 62.2871L33.1269 62.1875V62.6855C33.1269 63.5645 32.3886 64.2383 31.4277 64.2383ZM31.1991 65.1055C32.0195 65.1055 32.7929 64.6484 33.1562 63.9512H33.1796V65H34.1464V60.7871C34.1464 59.5742 33.2441 58.8008 31.8144 58.8008C30.373 58.8008 29.4706 59.6094 29.4003 60.6641H30.3847C30.5136 60.0664 31.0058 59.6973 31.7909 59.6973C32.6347 59.6973 33.1269 60.1426 33.1269 60.8867V61.3965L31.3808 61.4961C29.9745 61.5781 29.1718 62.2344 29.1718 63.2773C29.1718 64.373 29.9862 65.1055 31.1991 65.1055ZM37.8699 65.1055C38.7488 65.1055 39.4461 64.6719 39.8387 63.9688H39.8562V65H40.8289V56.5449H39.8094V59.8965H39.7859C39.4227 59.2285 38.7195 58.8008 37.8465 58.8008C36.3113 58.8008 35.2625 60.043 35.2625 61.9531C35.2625 63.8633 36.3172 65.1055 37.8699 65.1055ZM38.0633 59.6973C39.1121 59.6973 39.8152 60.5938 39.8152 61.9531C39.8152 63.3184 39.1121 64.209 38.0633 64.209C36.9852 64.209 36.3055 63.3359 36.3055 61.9531C36.3055 60.5762 36.9852 59.6973 38.0633 59.6973ZM47.8658 58.8008C46.981 58.8008 46.272 59.252 45.897 59.9375H45.8736V58.9062H44.9068V67.0332H45.9263V64.0098H45.9498C46.313 64.6777 47.0162 65.1055 47.8892 65.1055C49.4244 65.1055 50.4732 63.8633 50.4732 61.9531C50.4732 60.043 49.4185 58.8008 47.8658 58.8008ZM47.6666 64.209C46.6236 64.209 45.9205 63.3125 45.9205 61.9531C45.9205 60.5996 46.6236 59.6973 47.6666 59.6973C48.7505 59.6973 49.4302 60.5762 49.4302 61.9531C49.4302 63.3359 48.7505 64.209 47.6666 64.209ZM54.1498 65.1055C55.8315 65.1055 56.9682 63.8926 56.9682 61.9531C56.9682 60.0078 55.8315 58.8008 54.1498 58.8008C52.4623 58.8008 51.3256 60.0078 51.3256 61.9531C51.3256 63.8926 52.4623 65.1055 54.1498 65.1055ZM54.1498 64.209C53.0717 64.209 52.3627 63.3887 52.3627 61.9531C52.3627 60.5176 53.0717 59.6973 54.1498 59.6973C55.228 59.6973 55.9311 60.5176 55.9311 61.9531C55.9311 63.3887 55.228 64.209 54.1498 64.209ZM58.1195 65H59.139V61.2031C59.139 60.3418 59.6546 59.7734 60.4456 59.7734C60.6917 59.7734 60.9085 59.8027 60.9905 59.832V58.8418C60.9085 58.8301 60.7562 58.8008 60.5804 58.8008C59.8655 58.8008 59.303 59.2285 59.1038 59.9023H59.0804V58.9062H58.1195V65ZM62.2707 57.4355V58.9062H61.3625V59.7441H62.2707V63.418C62.2707 64.5898 62.7043 65.0469 63.8234 65.0469C64.0637 65.0469 64.3449 65.0293 64.468 65V64.1445C64.3977 64.1562 64.1633 64.1738 64.0461 64.1738C63.5246 64.1738 63.2902 63.9219 63.2902 63.3652V59.7441H64.4738V58.9062H63.2902V57.4355H62.2707ZM66.0118 65H67.0313V59.7441H68.2735V58.9062H67.0255V58.2324C67.0255 57.6289 67.2891 57.3359 67.8399 57.3359C68.0098 57.3359 68.1798 57.3535 68.3028 57.3711V56.5449C68.1563 56.5215 67.9102 56.498 67.6817 56.498C66.5567 56.498 66.0118 57.0547 66.0118 58.2266V58.9062H65.1622V59.7441H66.0118V65ZM71.6806 65.1055C73.3623 65.1055 74.499 63.8926 74.499 61.9531C74.499 60.0078 73.3623 58.8008 71.6806 58.8008C69.9931 58.8008 68.8564 60.0078 68.8564 61.9531C68.8564 63.8926 69.9931 65.1055 71.6806 65.1055ZM71.6806 64.209C70.6025 64.209 69.8935 63.3887 69.8935 61.9531C69.8935 60.5176 70.6025 59.6973 71.6806 59.6973C72.7587 59.6973 73.4619 60.5176 73.4619 61.9531C73.4619 63.3887 72.7587 64.209 71.6806 64.209ZM75.703 65H76.7225V56.5449H75.703V65ZM78.2722 65H79.2917V58.9062H78.2722V65ZM78.782 57.8809C79.1335 57.8809 79.4206 57.5938 79.4206 57.248C79.4206 56.8965 79.1335 56.6152 78.782 56.6152C78.4362 56.6152 78.1491 56.8965 78.1491 57.248C78.1491 57.5938 78.4362 57.8809 78.782 57.8809ZM83.3141 65.1055C84.9957 65.1055 86.1324 63.8926 86.1324 61.9531C86.1324 60.0078 84.9957 58.8008 83.3141 58.8008C81.6266 58.8008 80.4898 60.0078 80.4898 61.9531C80.4898 63.8926 81.6266 65.1055 83.3141 65.1055ZM83.3141 64.209C82.2359 64.209 81.527 63.3887 81.527 61.9531C81.527 60.5176 82.2359 59.6973 83.3141 59.6973C84.3922 59.6973 85.0953 60.5176 85.0953 61.9531C85.0953 63.3887 84.3922 64.209 83.3141 64.209Z" fill="#111827"/>
</svg>
