<svg width="91" height="70" viewBox="0 0 91 70" fill="none" xmlns="http://www.w3.org/2000/svg">
<circle cx="45.5" cy="22" r="21.5" stroke="#9CA3AF"/>
<path d="M41.6484 20.0312V20.0469H43.3047V20.0234C43.3047 18.8516 44.2344 17.9609 45.4688 17.9609C46.6406 17.9609 47.5469 18.7578 47.5469 19.7578C47.5469 20.6406 47.1875 21.2344 45.8125 22.6641L41.7422 26.8125V28H49.4531V26.5234H44.1016V26.4844L46.9219 23.6484C48.5703 21.9609 49.2734 20.9844 49.2734 19.6719C49.2734 17.8828 47.6719 16.5156 45.5234 16.5156C43.2812 16.5156 41.6484 18 41.6484 20.0312Z" fill="#9CA3AF"/>
<path d="M17.0607 65V57.4941H19.7267V56.5449H13.34V57.4941H16.006V65H17.0607ZM19.8995 67.2793C21.001 67.2793 21.5049 66.8516 22.0264 65.4277L24.4229 58.9062H23.3506L21.6631 63.9805H21.6455L19.958 58.9062H18.8682L21.1182 65.0059L20.9776 65.4336C20.7432 66.1426 20.4268 66.418 19.8584 66.418C19.7295 66.418 19.5713 66.4121 19.46 66.3887V67.2441C19.5713 67.2676 19.7764 67.2793 19.8995 67.2793ZM28.3105 58.8008C27.4257 58.8008 26.7167 59.252 26.3417 59.9375H26.3183V58.9062H25.3515V67.0332H26.371V64.0098H26.3945C26.7577 64.6777 27.4609 65.1055 28.3339 65.1055C29.8691 65.1055 30.9179 63.8633 30.9179 61.9531C30.9179 60.043 29.8632 58.8008 28.3105 58.8008ZM28.1112 64.209C27.0683 64.209 26.3652 63.3125 26.3652 61.9531C26.3652 60.5996 27.0683 59.6973 28.1112 59.6973C29.1952 59.6973 29.8749 60.5762 29.8749 61.9531C29.8749 63.3359 29.1952 64.209 28.1112 64.209ZM34.5125 59.6855C35.4734 59.6855 36.1121 60.4121 36.1355 61.4316H32.825C32.8895 60.418 33.5574 59.6855 34.5125 59.6855ZM36.1121 63.2539C35.9422 63.8281 35.3738 64.2207 34.6004 64.2207C33.5047 64.2207 32.8191 63.4531 32.8191 62.2871V62.2285H37.1902V61.8418C37.1902 59.9961 36.1766 58.8008 34.5301 58.8008C32.8484 58.8008 31.7703 60.084 31.7703 61.9766C31.7703 63.8926 32.8309 65.1055 34.577 65.1055C35.907 65.1055 36.9383 64.3203 37.1141 63.2539H36.1121ZM43.4478 65.1055C45.1295 65.1055 46.2662 63.8926 46.2662 61.9531C46.2662 60.0078 45.1295 58.8008 43.4478 58.8008C41.7603 58.8008 40.6236 60.0078 40.6236 61.9531C40.6236 63.8926 41.7603 65.1055 43.4478 65.1055ZM43.4478 64.209C42.3697 64.209 41.6607 63.3887 41.6607 61.9531C41.6607 60.5176 42.3697 59.6973 43.4478 59.6973C44.5259 59.6973 45.2291 60.5176 45.2291 61.9531C45.2291 63.3887 44.5259 64.209 43.4478 64.209ZM47.7455 65H48.7651V59.7441H50.0073V58.9062H48.7592V58.2324C48.7592 57.6289 49.0229 57.3359 49.5737 57.3359C49.7436 57.3359 49.9135 57.3535 50.0366 57.3711V56.5449C49.8901 56.5215 49.644 56.498 49.4155 56.498C48.2905 56.498 47.7455 57.0547 47.7455 58.2266V58.9062H46.8959V59.7441H47.7455V65ZM61.5148 58.9062H60.507L59.2883 63.8633H59.2648L57.882 58.9062H56.8977L55.5207 63.8633H55.4973L54.2785 58.9062H53.2648L54.9699 65H56.007L57.3781 60.2832H57.4016L58.7785 65H59.8156L61.5148 58.9062ZM64.9981 65.1055C66.6798 65.1055 67.8165 63.8926 67.8165 61.9531C67.8165 60.0078 66.6798 58.8008 64.9981 58.8008C63.3106 58.8008 62.1739 60.0078 62.1739 61.9531C62.1739 63.8926 63.3106 65.1055 64.9981 65.1055ZM64.9981 64.209C63.92 64.209 63.211 63.3887 63.211 61.9531C63.211 60.5176 63.92 59.6973 64.9981 59.6973C66.0763 59.6973 66.7794 60.5176 66.7794 61.9531C66.7794 63.3887 66.0763 64.209 64.9981 64.209ZM68.9677 65H69.9873V61.2031C69.9873 60.3418 70.5029 59.7734 71.2939 59.7734C71.54 59.7734 71.7568 59.8027 71.8388 59.832V58.8418C71.7568 58.8301 71.6045 58.8008 71.4287 58.8008C70.7138 58.8008 70.1513 59.2285 69.9521 59.9023H69.9287V58.9062H68.9677V65ZM73.8631 61.6133V56.5449H72.8436V65H73.8631V62.7031L74.4315 62.1641L76.6932 65H77.8768L75.1522 61.5371L77.7948 58.9062H76.5584L73.8631 61.6133Z" fill="#111827"/>
</svg>
