<svg width="91" height="70" viewBox="0 0 91 70" fill="none" xmlns="http://www.w3.org/2000/svg">
<path d="M45.5 0C33.378 0 23.5 9.878 23.5 22C23.5 34.122 33.378 44 45.5 44C57.622 44 67.5 34.122 67.5 22C67.5 9.878 57.622 0 45.5 0ZM56.016 16.94L43.542 29.414C43.234 29.722 42.816 29.898 42.376 29.898C41.936 29.898 41.518 29.722 41.21 29.414L34.984 23.188C34.346 22.55 34.346 21.494 34.984 20.856C35.622 20.218 36.678 20.218 37.316 20.856L42.376 25.916L53.684 14.608C54.322 13.97 55.378 13.97 56.016 14.608C56.654 15.246 56.654 16.28 56.016 16.94Z" fill="#387FFB"/>
<path d="M30.017 65C31.8158 65 32.8822 64.1152 32.8822 62.627C32.8822 61.502 32.1439 60.6934 30.9955 60.5469V60.5C31.8099 60.3535 32.4545 59.5332 32.4545 58.6543C32.4545 57.3887 31.4759 56.5449 30.0287 56.5449H26.8236V65H30.017ZM27.8783 57.4766H29.7884C30.8138 57.4766 31.388 57.9395 31.388 58.7773C31.388 59.6914 30.7084 60.1895 29.4603 60.1895H27.8783V57.4766ZM27.8783 64.0684V61.0977H29.7591C31.1068 61.0977 31.7982 61.5957 31.7982 62.5742C31.7982 63.5527 31.1302 64.0684 29.8587 64.0684H27.8783ZM34.092 65H35.1116V58.9062H34.092V65ZM34.6018 57.8809C34.9534 57.8809 35.2405 57.5938 35.2405 57.248C35.2405 56.8965 34.9534 56.6152 34.6018 56.6152C34.2561 56.6152 33.969 56.8965 33.969 57.248C33.969 57.5938 34.2561 57.8809 34.6018 57.8809ZM39.1339 65.1055C40.8155 65.1055 41.9523 63.8926 41.9523 61.9531C41.9523 60.0078 40.8155 58.8008 39.1339 58.8008C37.4464 58.8008 36.3097 60.0078 36.3097 61.9531C36.3097 63.8926 37.4464 65.1055 39.1339 65.1055ZM39.1339 64.209C38.0558 64.209 37.3468 63.3887 37.3468 61.9531C37.3468 60.5176 38.0558 59.6973 39.1339 59.6973C40.212 59.6973 40.9152 60.5176 40.9152 61.9531C40.9152 63.3887 40.212 64.209 39.1339 64.209ZM45.4121 65.1055C46.291 65.1055 46.9883 64.6719 47.3809 63.9688H47.3984V65H48.3711V56.5449H47.3516V59.8965H47.3281C46.9648 59.2285 46.2617 58.8008 45.3887 58.8008C43.8535 58.8008 42.8047 60.043 42.8047 61.9531C42.8047 63.8633 43.8594 65.1055 45.4121 65.1055ZM45.6055 59.6973C46.6543 59.6973 47.3574 60.5938 47.3574 61.9531C47.3574 63.3184 46.6543 64.209 45.6055 64.209C44.5273 64.209 43.8477 63.3359 43.8477 61.9531C43.8477 60.5762 44.5273 59.6973 45.6055 59.6973ZM51.8778 64.2383C51.1454 64.2383 50.6591 63.8574 50.6591 63.2773C50.6591 62.7031 51.1278 62.3398 51.9481 62.2871L53.577 62.1875V62.6855C53.577 63.5645 52.8387 64.2383 51.8778 64.2383ZM51.6493 65.1055C52.4696 65.1055 53.243 64.6484 53.6063 63.9512H53.6298V65H54.5966V60.7871C54.5966 59.5742 53.6942 58.8008 52.2645 58.8008C50.8231 58.8008 49.9208 59.6094 49.8505 60.6641H50.8348C50.9637 60.0664 51.4559 59.6973 52.2411 59.6973C53.0848 59.6973 53.577 60.1426 53.577 60.8867V61.3965L51.8309 61.4961C50.4247 61.5781 49.622 62.2344 49.622 63.2773C49.622 64.373 50.4364 65.1055 51.6493 65.1055ZM56.3396 57.4355V58.9062H55.4314V59.7441H56.3396V63.418C56.3396 64.5898 56.7732 65.0469 57.8923 65.0469C58.1326 65.0469 58.4138 65.0293 58.5369 65V64.1445C58.4666 64.1562 58.2322 64.1738 58.115 64.1738C57.5935 64.1738 57.3591 63.9219 57.3591 63.3652V59.7441H58.5427V58.9062H57.3591V57.4355H56.3396ZM61.6452 64.2383C60.9127 64.2383 60.4264 63.8574 60.4264 63.2773C60.4264 62.7031 60.8952 62.3398 61.7155 62.2871L63.3444 62.1875V62.6855C63.3444 63.5645 62.6061 64.2383 61.6452 64.2383ZM61.4166 65.1055C62.237 65.1055 63.0104 64.6484 63.3737 63.9512H63.3971V65H64.3639V60.7871C64.3639 59.5742 63.4616 58.8008 62.0319 58.8008C60.5905 58.8008 59.6881 59.6094 59.6178 60.6641H60.6022C60.7311 60.0664 61.2233 59.6973 62.0084 59.6973C62.8522 59.6973 63.3444 60.1426 63.3444 60.8867V61.3965L61.5983 61.4961C60.192 61.5781 59.3893 62.2344 59.3893 63.2773C59.3893 64.373 60.2038 65.1055 61.4166 65.1055Z" fill="#3366FF"/>
</svg>
